<mxfile host="Electron" modified="2023-12-13T08:11:10.624Z" agent="Mozilla/5.0 (Windows NT 10.0; Win64; x64) AppleWebKit/537.36 (KHTML, like Gecko) draw.io/22.0.0 Chrome/114.0.5735.289 Electron/25.8.3 Safari/537.36" etag="PDFPsAUpP6AsLZ8hnr6a" version="22.0.0" type="device">
  <diagram name="Page-1" id="N2ZL4UJc5xcgP7ICeBuc">
    <mxGraphModel dx="1674" dy="884" grid="1" gridSize="10" guides="1" tooltips="1" connect="1" arrows="1" fold="1" page="1" pageScale="1" pageWidth="850" pageHeight="1100" math="0" shadow="0">
      <root>
        <mxCell id="0" />
        <mxCell id="1" parent="0" />
        <mxCell id="hxnj8rbF2iPfaNJGt_uy-1" value="Basic Framework" style="rounded=0;whiteSpace=wrap;html=1;" vertex="1" parent="1">
          <mxGeometry x="70" y="70" width="120" height="60" as="geometry" />
        </mxCell>
        <mxCell id="hxnj8rbF2iPfaNJGt_uy-9" style="edgeStyle=orthogonalEdgeStyle;rounded=0;orthogonalLoop=1;jettySize=auto;html=1;entryX=0;entryY=0.5;entryDx=0;entryDy=0;" edge="1" parent="1" source="hxnj8rbF2iPfaNJGt_uy-2" target="hxnj8rbF2iPfaNJGt_uy-3">
          <mxGeometry relative="1" as="geometry" />
        </mxCell>
        <mxCell id="hxnj8rbF2iPfaNJGt_uy-11" style="edgeStyle=orthogonalEdgeStyle;rounded=0;orthogonalLoop=1;jettySize=auto;html=1;exitX=0.5;exitY=1;exitDx=0;exitDy=0;entryX=0.5;entryY=0;entryDx=0;entryDy=0;" edge="1" parent="1" source="hxnj8rbF2iPfaNJGt_uy-2" target="hxnj8rbF2iPfaNJGt_uy-10">
          <mxGeometry relative="1" as="geometry" />
        </mxCell>
        <mxCell id="hxnj8rbF2iPfaNJGt_uy-2" value="Game Menu" style="rounded=0;whiteSpace=wrap;html=1;" vertex="1" parent="1">
          <mxGeometry x="250" y="170" width="110" height="60" as="geometry" />
        </mxCell>
        <mxCell id="hxnj8rbF2iPfaNJGt_uy-5" style="edgeStyle=orthogonalEdgeStyle;rounded=0;orthogonalLoop=1;jettySize=auto;html=1;exitX=1;exitY=0.5;exitDx=0;exitDy=0;entryX=0;entryY=0.5;entryDx=0;entryDy=0;" edge="1" parent="1" source="hxnj8rbF2iPfaNJGt_uy-3">
          <mxGeometry relative="1" as="geometry">
            <mxPoint x="640" y="200" as="targetPoint" />
          </mxGeometry>
        </mxCell>
        <mxCell id="hxnj8rbF2iPfaNJGt_uy-3" value="Intro&lt;br&gt;" style="whiteSpace=wrap;html=1;aspect=fixed;" vertex="1" parent="1">
          <mxGeometry x="450" y="160" width="80" height="80" as="geometry" />
        </mxCell>
        <mxCell id="hxnj8rbF2iPfaNJGt_uy-7" style="edgeStyle=orthogonalEdgeStyle;rounded=0;orthogonalLoop=1;jettySize=auto;html=1;exitX=0.5;exitY=1;exitDx=0;exitDy=0;" edge="1" parent="1" target="hxnj8rbF2iPfaNJGt_uy-6">
          <mxGeometry relative="1" as="geometry">
            <mxPoint x="700" y="230" as="sourcePoint" />
          </mxGeometry>
        </mxCell>
        <mxCell id="hxnj8rbF2iPfaNJGt_uy-6" value="Game story" style="rounded=0;whiteSpace=wrap;html=1;" vertex="1" parent="1">
          <mxGeometry x="490" y="300" width="340" height="520" as="geometry" />
        </mxCell>
        <mxCell id="hxnj8rbF2iPfaNJGt_uy-13" value="" style="edgeStyle=orthogonalEdgeStyle;rounded=0;orthogonalLoop=1;jettySize=auto;html=1;" edge="1" parent="1" source="hxnj8rbF2iPfaNJGt_uy-8" target="hxnj8rbF2iPfaNJGt_uy-12">
          <mxGeometry relative="1" as="geometry" />
        </mxCell>
        <mxCell id="hxnj8rbF2iPfaNJGt_uy-8" value="Character Creation" style="rounded=0;whiteSpace=wrap;html=1;" vertex="1" parent="1">
          <mxGeometry x="640" y="170" width="120" height="60" as="geometry" />
        </mxCell>
        <mxCell id="hxnj8rbF2iPfaNJGt_uy-10" value="Option" style="rounded=0;whiteSpace=wrap;html=1;" vertex="1" parent="1">
          <mxGeometry x="245" y="290" width="120" height="60" as="geometry" />
        </mxCell>
        <mxCell id="hxnj8rbF2iPfaNJGt_uy-12" value="" style="rounded=0;whiteSpace=wrap;html=1;" vertex="1" parent="1">
          <mxGeometry x="640" y="30" width="120" height="60" as="geometry" />
        </mxCell>
      </root>
    </mxGraphModel>
  </diagram>
</mxfile>
